<mxfile host="app.diagrams.net" modified="2021-12-09T23:55:04.110Z" agent="5.0 (Macintosh)" etag="FelyEafaSmfFS5Twgo84" version="15.9.4" type="github">
  <diagram name="Page-1" id="74e2e168-ea6b-b213-b513-2b3c1d86103e">
    <mxGraphModel dx="1347" dy="1127" grid="0" gridSize="10" guides="1" tooltips="1" connect="1" arrows="1" fold="1" page="1" pageScale="1" pageWidth="1100" pageHeight="850" math="0" shadow="0">
      <root>
        <mxCell id="0" />
        <mxCell id="1" parent="0" />
        <mxCell id="77e6c97f196da883-1" value="&lt;font style=&quot;font-size: 19px&quot;&gt;SBSAR Cave Team Progression&lt;/font&gt;" style="swimlane;html=1;childLayout=stackLayout;startSize=50;rounded=0;shadow=0;labelBackgroundColor=none;strokeWidth=1;fontFamily=Verdana;fontSize=8;align=center;fillColor=#B2C9AB;strokeColor=#788AA3;fontColor=#46495D;" parent="1" vertex="1">
          <mxGeometry x="70" y="10" width="730" height="590" as="geometry" />
        </mxCell>
        <mxCell id="77e6c97f196da883-2" value="Deployment Requirements" style="swimlane;html=1;startSize=20;fillColor=#B2C9AB;strokeColor=#788AA3;fontColor=#46495D;" parent="77e6c97f196da883-1" vertex="1">
          <mxGeometry y="50" width="250" height="540" as="geometry" />
        </mxCell>
        <mxCell id="77e6c97f196da883-8" value="&lt;font style=&quot;font-size: 12px&quot;&gt;BSAR&lt;/font&gt;" style="rounded=1;whiteSpace=wrap;html=1;shadow=0;labelBackgroundColor=none;strokeWidth=1;fontFamily=Verdana;fontSize=8;align=center;fillColor=#B2C9AB;strokeColor=#788AA3;fontColor=#46495D;" parent="77e6c97f196da883-2" vertex="1">
          <mxGeometry x="75" y="50" width="100" height="60" as="geometry" />
        </mxCell>
        <mxCell id="77e6c97f196da883-9" value="&lt;font style=&quot;font-size: 12px&quot;&gt;EVOC&lt;/font&gt;" style="rounded=1;whiteSpace=wrap;html=1;shadow=0;labelBackgroundColor=none;strokeWidth=1;fontFamily=Verdana;fontSize=8;align=center;fillColor=#B2C9AB;strokeColor=#788AA3;fontColor=#46495D;" parent="77e6c97f196da883-2" vertex="1">
          <mxGeometry x="75" y="350" width="100" height="60" as="geometry" />
        </mxCell>
        <mxCell id="m82lKhR-XBF9LZV5ZHuw-30" value="" style="edgeStyle=orthogonalEdgeStyle;rounded=0;orthogonalLoop=1;jettySize=auto;html=1;fontSize=19;strokeColor=#788AA3;fontColor=#46495D;strokeWidth=1;" edge="1" parent="77e6c97f196da883-2" source="77e6c97f196da883-10" target="77e6c97f196da883-8">
          <mxGeometry relative="1" as="geometry" />
        </mxCell>
        <mxCell id="77e6c97f196da883-10" value="&lt;font style=&quot;font-size: 12px&quot;&gt;CPR&lt;/font&gt;" style="rounded=1;whiteSpace=wrap;html=1;shadow=0;labelBackgroundColor=none;strokeWidth=1;fontFamily=Verdana;fontSize=8;align=center;fillColor=#B2C9AB;strokeColor=#788AA3;fontColor=#46495D;" parent="77e6c97f196da883-2" vertex="1">
          <mxGeometry x="15" y="150" width="100" height="60" as="geometry" />
        </mxCell>
        <mxCell id="m82lKhR-XBF9LZV5ZHuw-1" value="&lt;div style=&quot;font-size: 12px&quot;&gt;&lt;font style=&quot;font-size: 12px&quot;&gt;HeliTac&lt;/font&gt;&lt;/div&gt;" style="rounded=1;whiteSpace=wrap;html=1;shadow=0;labelBackgroundColor=none;strokeWidth=1;fontFamily=Verdana;fontSize=8;align=center;fillColor=#B2C9AB;strokeColor=#788AA3;fontColor=#46495D;" vertex="1" parent="77e6c97f196da883-2">
          <mxGeometry x="75" y="450" width="100" height="60" as="geometry" />
        </mxCell>
        <mxCell id="m82lKhR-XBF9LZV5ZHuw-29" value="" style="edgeStyle=orthogonalEdgeStyle;rounded=0;orthogonalLoop=1;jettySize=auto;html=1;fontSize=19;strokeColor=#788AA3;fontColor=#46495D;strokeWidth=1;" edge="1" parent="77e6c97f196da883-2" source="m82lKhR-XBF9LZV5ZHuw-4" target="77e6c97f196da883-8">
          <mxGeometry relative="1" as="geometry" />
        </mxCell>
        <mxCell id="m82lKhR-XBF9LZV5ZHuw-4" value="&lt;font style=&quot;font-size: 12px&quot;&gt;EMR&lt;/font&gt;" style="rounded=1;whiteSpace=wrap;html=1;shadow=0;labelBackgroundColor=none;strokeWidth=1;fontFamily=Verdana;fontSize=8;align=center;fillColor=#B2C9AB;strokeColor=#788AA3;fontColor=#46495D;" vertex="1" parent="77e6c97f196da883-2">
          <mxGeometry x="135" y="150" width="100" height="60" as="geometry" />
        </mxCell>
        <mxCell id="m82lKhR-XBF9LZV5ZHuw-17" value="&lt;div&gt;CLETS&lt;/div&gt;" style="rhombus;whiteSpace=wrap;html=1;fillColor=#B2C9AB;strokeColor=#788AA3;fontColor=#46495D;strokeWidth=1;" vertex="1" parent="77e6c97f196da883-2">
          <mxGeometry x="85" y="240" width="80" height="80" as="geometry" />
        </mxCell>
        <mxCell id="m82lKhR-XBF9LZV5ZHuw-27" value="" style="endArrow=classic;html=1;rounded=0;fontSize=19;exitX=0.5;exitY=0;exitDx=0;exitDy=0;entryX=0.5;entryY=1;entryDx=0;entryDy=0;strokeColor=#788AA3;fontColor=#46495D;strokeWidth=1;" edge="1" parent="77e6c97f196da883-2" source="m82lKhR-XBF9LZV5ZHuw-17" target="77e6c97f196da883-8">
          <mxGeometry width="50" height="50" relative="1" as="geometry">
            <mxPoint x="500" y="370" as="sourcePoint" />
            <mxPoint x="550" y="320" as="targetPoint" />
          </mxGeometry>
        </mxCell>
        <mxCell id="77e6c97f196da883-3" value="Technical Mission Reqs" style="swimlane;html=1;startSize=20;fillColor=#B2C9AB;strokeColor=#788AA3;fontColor=#46495D;" parent="77e6c97f196da883-1" vertex="1">
          <mxGeometry x="250" y="50" width="160" height="540" as="geometry" />
        </mxCell>
        <mxCell id="m82lKhR-XBF9LZV5ZHuw-11" value="" style="edgeStyle=orthogonalEdgeStyle;rounded=0;orthogonalLoop=1;jettySize=auto;html=1;strokeColor=#788AA3;fontColor=#46495D;strokeWidth=1;" edge="1" parent="77e6c97f196da883-3" source="77e6c97f196da883-11" target="m82lKhR-XBF9LZV5ZHuw-10">
          <mxGeometry relative="1" as="geometry" />
        </mxCell>
        <mxCell id="77e6c97f196da883-11" value="&lt;font style=&quot;font-size: 12px&quot;&gt;RRS&lt;/font&gt;" style="rounded=1;whiteSpace=wrap;html=1;shadow=0;labelBackgroundColor=none;strokeWidth=1;fontFamily=Verdana;fontSize=8;align=center;fillColor=#B2C9AB;strokeColor=#788AA3;fontColor=#46495D;" parent="77e6c97f196da883-3" vertex="1">
          <mxGeometry x="30" y="50" width="100" height="60" as="geometry" />
        </mxCell>
        <mxCell id="m82lKhR-XBF9LZV5ZHuw-13" value="" style="edgeStyle=orthogonalEdgeStyle;rounded=0;orthogonalLoop=1;jettySize=auto;html=1;strokeColor=#788AA3;fontColor=#46495D;strokeWidth=1;" edge="1" parent="77e6c97f196da883-3" source="m82lKhR-XBF9LZV5ZHuw-10" target="m82lKhR-XBF9LZV5ZHuw-12">
          <mxGeometry relative="1" as="geometry" />
        </mxCell>
        <mxCell id="m82lKhR-XBF9LZV5ZHuw-10" value="&lt;font style=&quot;font-size: 12px&quot;&gt;RRO&lt;/font&gt;" style="rounded=1;whiteSpace=wrap;html=1;shadow=0;labelBackgroundColor=none;strokeWidth=1;fontFamily=Verdana;fontSize=8;align=center;fillColor=#B2C9AB;strokeColor=#788AA3;fontColor=#46495D;" vertex="1" parent="77e6c97f196da883-3">
          <mxGeometry x="30" y="150" width="100" height="60" as="geometry" />
        </mxCell>
        <mxCell id="m82lKhR-XBF9LZV5ZHuw-12" value="&lt;font style=&quot;font-size: 12px&quot;&gt;BMC&lt;/font&gt;" style="rounded=1;whiteSpace=wrap;html=1;shadow=0;labelBackgroundColor=none;strokeWidth=1;fontFamily=Verdana;fontSize=8;align=center;fillColor=#B2C9AB;strokeColor=#788AA3;fontColor=#46495D;" vertex="1" parent="77e6c97f196da883-3">
          <mxGeometry x="30" y="250" width="100" height="60" as="geometry" />
        </mxCell>
        <mxCell id="m82lKhR-XBF9LZV5ZHuw-14" value="&lt;font style=&quot;font-size: 12px&quot;&gt;NCRC Level 1&lt;/font&gt;" style="rounded=1;whiteSpace=wrap;html=1;shadow=0;labelBackgroundColor=none;strokeWidth=1;fontFamily=Verdana;fontSize=8;align=center;fillColor=#B2C9AB;strokeColor=#788AA3;fontColor=#46495D;" vertex="1" parent="77e6c97f196da883-3">
          <mxGeometry x="30" y="350" width="100" height="60" as="geometry" />
        </mxCell>
        <mxCell id="77e6c97f196da883-4" value="Advanced Trainings" style="swimlane;html=1;startSize=20;fillColor=#B2C9AB;strokeColor=#788AA3;fontColor=#46495D;" parent="77e6c97f196da883-1" vertex="1">
          <mxGeometry x="410" y="50" width="160" height="540" as="geometry" />
        </mxCell>
        <mxCell id="m82lKhR-XBF9LZV5ZHuw-18" value="&lt;font style=&quot;font-size: 12px&quot;&gt;RRT&lt;/font&gt;" style="rounded=1;whiteSpace=wrap;html=1;shadow=0;labelBackgroundColor=none;strokeWidth=1;fontFamily=Verdana;fontSize=8;align=center;fillColor=#B2C9AB;strokeColor=#788AA3;fontColor=#46495D;" vertex="1" parent="77e6c97f196da883-4">
          <mxGeometry x="30" y="150" width="100" height="60" as="geometry" />
        </mxCell>
        <mxCell id="m82lKhR-XBF9LZV5ZHuw-20" value="&lt;font style=&quot;font-size: 12px&quot;&gt;NCRC Level 2 / 3&lt;/font&gt;" style="rounded=1;whiteSpace=wrap;html=1;shadow=0;labelBackgroundColor=none;strokeWidth=1;fontFamily=Verdana;fontSize=8;align=center;fillColor=#B2C9AB;strokeColor=#788AA3;fontColor=#46495D;" vertex="1" parent="77e6c97f196da883-4">
          <mxGeometry x="30" y="350" width="100" height="60" as="geometry" />
        </mxCell>
        <mxCell id="77e6c97f196da883-5" value="Other Trainings" style="swimlane;html=1;startSize=20;fillColor=#B2C9AB;strokeColor=#788AA3;fontColor=#46495D;" parent="77e6c97f196da883-1" vertex="1">
          <mxGeometry x="570" y="50" width="160" height="540" as="geometry" />
        </mxCell>
        <mxCell id="77e6c97f196da883-15" value="&lt;div&gt;Swiftwater Technician&lt;/div&gt;" style="rounded=1;whiteSpace=wrap;html=1;shadow=0;labelBackgroundColor=none;strokeWidth=1;fontFamily=Verdana;fontSize=8;align=center;fillColor=#B2C9AB;strokeColor=#788AA3;fontColor=#46495D;" parent="77e6c97f196da883-5" vertex="1">
          <mxGeometry x="30" y="40" width="100" height="60" as="geometry" />
        </mxCell>
        <mxCell id="77e6c97f196da883-17" value="Avalanche Safety" style="rounded=1;whiteSpace=wrap;html=1;shadow=0;labelBackgroundColor=none;strokeWidth=1;fontFamily=Verdana;fontSize=8;align=center;fillColor=#B2C9AB;strokeColor=#788AA3;fontColor=#46495D;" parent="77e6c97f196da883-5" vertex="1">
          <mxGeometry x="30" y="120" width="100" height="60" as="geometry" />
        </mxCell>
        <mxCell id="m82lKhR-XBF9LZV5ZHuw-23" value="WFR / EMT" style="rounded=1;whiteSpace=wrap;html=1;shadow=0;labelBackgroundColor=none;strokeWidth=1;fontFamily=Verdana;fontSize=8;align=center;fillColor=#B2C9AB;strokeColor=#788AA3;fontColor=#46495D;" vertex="1" parent="77e6c97f196da883-5">
          <mxGeometry x="30" y="280" width="100" height="60" as="geometry" />
        </mxCell>
        <mxCell id="m82lKhR-XBF9LZV5ZHuw-22" value="Commercial Blasting" style="rounded=1;whiteSpace=wrap;html=1;shadow=0;labelBackgroundColor=none;strokeWidth=1;fontFamily=Verdana;fontSize=8;align=center;fillColor=#B2C9AB;strokeColor=#788AA3;fontColor=#46495D;" vertex="1" parent="77e6c97f196da883-5">
          <mxGeometry x="30" y="200" width="100" height="60" as="geometry" />
        </mxCell>
        <mxCell id="m82lKhR-XBF9LZV5ZHuw-21" value="ATV" style="rounded=1;whiteSpace=wrap;html=1;shadow=0;labelBackgroundColor=none;strokeWidth=1;fontFamily=Verdana;fontSize=8;align=center;fillColor=#B2C9AB;strokeColor=#788AA3;fontColor=#46495D;" vertex="1" parent="77e6c97f196da883-5">
          <mxGeometry x="30" y="360" width="100" height="60" as="geometry" />
        </mxCell>
        <mxCell id="m82lKhR-XBF9LZV5ZHuw-24" value="Mounted Posse" style="rounded=1;whiteSpace=wrap;html=1;shadow=0;labelBackgroundColor=none;strokeWidth=1;fontFamily=Verdana;fontSize=8;align=center;fillColor=#B2C9AB;strokeColor=#788AA3;fontColor=#46495D;" vertex="1" parent="77e6c97f196da883-5">
          <mxGeometry x="30" y="440" width="100" height="60" as="geometry" />
        </mxCell>
        <mxCell id="m82lKhR-XBF9LZV5ZHuw-19" value="" style="edgeStyle=orthogonalEdgeStyle;rounded=0;orthogonalLoop=1;jettySize=auto;html=1;exitX=1;exitY=0.5;exitDx=0;exitDy=0;strokeColor=#788AA3;fontColor=#46495D;strokeWidth=1;" edge="1" parent="77e6c97f196da883-1" source="m82lKhR-XBF9LZV5ZHuw-10" target="m82lKhR-XBF9LZV5ZHuw-18">
          <mxGeometry relative="1" as="geometry" />
        </mxCell>
        <mxCell id="m82lKhR-XBF9LZV5ZHuw-28" value="&lt;div&gt;&lt;b style=&quot;font-weight: normal&quot; id=&quot;docs-internal-guid-5d34e9ea-7fff-e90c-2fef-1af971ae136d&quot;&gt;&lt;span style=&quot;font-size: 9px ; font-family: &amp;#34;arial&amp;#34; ; color: rgb(0 , 0 , 0) ; background-color: transparent ; font-weight: 400 ; font-style: normal ; font-variant: normal ; text-decoration: none ; vertical-align: baseline&quot;&gt;&lt;/span&gt;&lt;/b&gt;&lt;b style=&quot;font-weight: normal&quot; id=&quot;docs-internal-guid-5d34e9ea-7fff-e90c-2fef-1af971ae136d&quot;&gt;&lt;span style=&quot;font-size: 9px ; font-family: &amp;#34;arial&amp;#34; ; color: rgb(0 , 0 , 0) ; background-color: transparent ; font-weight: 400 ; font-style: normal ; font-variant: normal ; text-decoration: none ; vertical-align: baseline&quot;&gt;prerequisites&lt;/span&gt;&lt;/b&gt;&lt;/div&gt;" style="edgeStyle=orthogonalEdgeStyle;rounded=0;orthogonalLoop=1;jettySize=auto;html=1;fontSize=19;strokeColor=#788AA3;fontColor=#46495D;strokeWidth=1;" edge="1" parent="77e6c97f196da883-1" source="77e6c97f196da883-8" target="77e6c97f196da883-11">
          <mxGeometry x="-0.3143" y="6" relative="1" as="geometry">
            <mxPoint as="offset" />
          </mxGeometry>
        </mxCell>
        <mxCell id="m82lKhR-XBF9LZV5ZHuw-31" value="" style="edgeStyle=orthogonalEdgeStyle;rounded=0;orthogonalLoop=1;jettySize=auto;html=1;fontSize=9;strokeColor=#788AA3;fontColor=#46495D;strokeWidth=1;" edge="1" parent="77e6c97f196da883-1" source="m82lKhR-XBF9LZV5ZHuw-14" target="m82lKhR-XBF9LZV5ZHuw-20">
          <mxGeometry relative="1" as="geometry" />
        </mxCell>
      </root>
    </mxGraphModel>
  </diagram>
</mxfile>
